Crispy-Bold.ufo
<glyph name="exclam" format="2">
  <advance width="520"/>
  <unicode hex="0021"/>
  <outline>
    <contour>
      <point x="86" y="327" type="line" identifier="1m237t4hyw"/>
      <point x="416" y="327" type="line" identifier="S4rO5KuHiL"/>
      <point x="454" y="399" type="line"/>
      <point x="454" y="1600" type="line" identifier="zfocDyDTCM"/>
      <point x="123" y="1600" type="line" identifier="v7N4yg5XNk"/>
      <point x="86" y="1526" type="line"/>
    </contour>
    <component base="period" xOffset="30"/>
  </outline>
</glyph>
<glyph name="comma" format="2">
  <advance width="624"/>
  <unicode hex="002C"/>
  <outline>
    <contour>
      <point x="409" y="-256" type="line"/>
      <point x="548" y="0" type="line"/>
      <point x="548" y="235" type="line"/>
      <point x="243" y="235" type="line"/>
      <point x="194" y="168" type="line"/>
      <point x="194" y="0" type="line"/>
      <point x="370" y="0" type="line"/>
      <point x="370" y="-256" type="line"/>
    </contour>
  </outline>
</glyph>
<glyph name="period" format="2">
  <advance width="575"/>
  <unicode hex="002E"/>
  <outline>
    <contour>
      <point x="411" y="0" type="line" identifier="1m237t4hyw"/>
      <point x="455" y="58" type="line" identifier="v7N4yg5XNk"/>
      <point x="455" y="258" type="line"/>
      <point x="130" y="258" type="line" identifier="zfocDyDTCM"/>
      <point x="86" y="200" type="line"/>
      <point x="86" y="0" type="line" identifier="S4rO5KuHiL"/>
    </contour>
  </outline>
</glyph>
<glyph name="one" format="2">
  <advance width="1621"/>
  <unicode hex="0031"/>
  <outline>
    <contour>
      <point x="67" y="0" type="line"/>
      <point x="1557" y="0" type="line" identifier="CURJAw79Zl"/>
      <point x="1557" y="238" type="line" identifier="0DUCJo8xIi"/>
      <point x="998" y="238" type="line" identifier="5nmxQXofSG"/>
      <point x="998" y="1600" type="line" identifier="4rjIeWbSbx"/>
      <point x="85" y="1600" type="line"/>
      <point x="85" y="1362" type="line"/>
      <point x="644" y="1362" type="line"/>
      <point x="644" y="238" type="line"/>
      <point x="67" y="238" type="line"/>
    </contour>
  </outline>
</glyph>
<glyph name="three" format="2">
  <advance width="1972"/>
  <unicode hex="0033"/>
  <outline>
    <contour>
      <point x="111" y="0" type="line" identifier="O9abUc1nmN"/>
      <point x="1862" y="0" type="line" identifier="kMJYMTfXCq"/>
      <point x="1862" y="904" type="line" identifier="su2XmdS8e8"/>
      <point x="1753" y="904" type="line" identifier="JQaOzDQqlF"/>
      <point x="1753" y="1600" type="line" identifier="xg8x2Ki40p"/>
      <point x="129" y="1600" type="line" identifier="pE1XSRiy68"/>
      <point x="129" y="1059" type="line" identifier="5lNstGRcSF"/>
      <point x="484" y="1059" type="line" identifier="AcE5xKDZfE"/>
      <point x="484" y="1370" type="line" identifier="7ogBYufWpl"/>
      <point x="1398" y="1370" type="line" identifier="RHLvSX2Jv6"/>
      <point x="1398" y="903" type="line" identifier="iic1IBkDqp"/>
      <point x="528" y="903" type="line" identifier="lRLJEhXMlO"/>
      <point x="528" y="685" type="line" identifier="8aKgEELrVU"/>
      <point x="1508" y="685" type="line" identifier="Dm8zjmbhNr"/>
      <point x="1508" y="230" type="line" identifier="xv9CFHiFgB"/>
      <point x="465" y="230" type="line" identifier="YajKQV3MHP"/>
      <point x="465" y="525" type="line" identifier="36SchVkwze"/>
      <point x="111" y="525" type="line" identifier="tVui9PiOjA"/>
    </contour>
  </outline>
</glyph>
<glyph name="four" format="2">
  <advance width="1944"/>
  <unicode hex="0034"/>
  <outline>
    <contour>
      <point x="1347" y="0" type="line"/>
      <point x="1701" y="0" type="line"/>
      <point x="1701" y="668" type="line"/>
      <point x="1852" y="668" type="line"/>
      <point x="1852" y="906" type="line"/>
      <point x="1701" y="906" type="line"/>
      <point x="1701" y="1600" type="line"/>
      <point x="1347" y="1600" type="line"/>
      <point x="1347" y="906" type="line"/>
      <point x="447" y="906" type="line"/>
      <point x="447" y="994" type="line"/>
      <point x="447" y="1593" type="line"/>
      <point x="92" y="1593" type="line"/>
      <point x="92" y="993" type="line"/>
      <point x="92" y="668" type="line"/>
      <point x="1347" y="668" type="line"/>
    </contour>
  </outline>
</glyph>
<glyph name="six" format="2">
  <advance width="1876"/>
  <unicode hex="0036"/>
  <outline>
    <contour>
      <point x="73" y="0" type="line" identifier="uiw6aBUf4P"/>
      <point x="1806" y="0" type="line" identifier="jtYkxiUX6G"/>
      <point x="1806" y="901" type="line" identifier="2G5L37c87I"/>
      <point x="427" y="901" type="line"/>
      <point x="427" y="1218" type="line"/>
      <point x="536" y="1370" type="line"/>
      <point x="1452" y="1370" type="line"/>
      <point x="1452" y="1087" type="line"/>
      <point x="1806" y="1087" type="line" identifier="Wuidbv6mUe"/>
      <point x="1806" y="1600" type="line" identifier="oGvEEuxnYv"/>
      <point x="271" y="1600" type="line" identifier="xR3pEHbMJx"/>
      <point x="73" y="1271" type="line" identifier="KnMArb0tv8"/>
    </contour>
    <contour>
      <point x="1452" y="671" type="line"/>
      <point x="1452" y="230" type="line"/>
      <point x="427" y="230" type="line"/>
      <point x="427" y="671" type="line"/>
    </contour>
  </outline>
</glyph>
<glyph name="seven" format="2">
  <advance width="1905"/>
  <unicode hex="0037"/>
  <outline>
    <contour>
      <point x="715" y="0" type="line"/>
      <point x="1089" y="0" type="line" identifier="PiPrv7Kcoy"/>
      <point x="1813" y="1220" type="line" identifier="PkvwNC9Tx1"/>
      <point x="1813" y="1600" type="line" identifier="tgqM27bPOm"/>
      <point x="92" y="1600" type="line" identifier="36ml4xRICt"/>
      <point x="92" y="1008" type="line" identifier="aaDZsh5Mah"/>
      <point x="446" y="1008" type="line"/>
      <point x="446" y="1362" type="line"/>
      <point x="1403" y="1362" type="line"/>
      <point x="1403" y="1241" type="line"/>
    </contour>
  </outline>
</glyph>
<glyph name="eight" format="2">
  <advance width="1986"/>
  <unicode hex="0038"/>
  <outline>
    <contour>
      <point x="1398" y="685" type="line"/>
      <point x="1539" y="586" type="line"/>
      <point x="1539" y="230" type="line"/>
      <point x="447" y="230" type="line"/>
      <point x="447" y="582" type="line"/>
      <point x="588" y="685" type="line"/>
    </contour>
    <contour>
      <point x="1736" y="799" type="line"/>
      <point x="1736" y="801" type="line"/>
      <point x="1890" y="934" type="line"/>
      <point x="1890" y="1600" type="line"/>
      <point x="96" y="1600" type="line"/>
      <point x="96" y="934" type="line"/>
      <point x="251" y="801" type="line"/>
      <point x="251" y="799" type="line"/>
      <point x="93" y="662" type="line"/>
      <point x="93" y="0" type="line"/>
      <point x="1893" y="0" type="line"/>
      <point x="1893" y="662" type="line"/>
    </contour>
    <contour>
      <point x="588" y="915" type="line"/>
      <point x="450" y="1012" type="line"/>
      <point x="450" y="1370" type="line"/>
      <point x="1536" y="1370" type="line"/>
      <point x="1535" y="1012" type="line"/>
      <point x="1398" y="915" type="line"/>
    </contour>
  </outline>
</glyph>
<glyph name="nine" format="2">
  <advance width="1935"/>
  <unicode hex="0039"/>
  <outline>
    <contour>
      <point x="1843" y="1601" type="line" identifier="uiw6aBUf4P"/>
      <point x="92" y="1601" type="line" identifier="jtYkxiUX6G"/>
      <point x="92" y="701" type="line" identifier="2G5L37c87I"/>
      <point x="1489" y="701" type="line"/>
      <point x="1489" y="232" type="line"/>
      <point x="448" y="232" type="line"/>
      <point x="448" y="443" type="line"/>
      <point x="93" y="443" type="line" identifier="Wuidbv6mUe"/>
      <point x="93" y="1" type="line" identifier="oGvEEuxnYv"/>
      <point x="1843" y="1" type="line" identifier="xR3pEHbMJx"/>
    </contour>
    <contour>
      <point x="447" y="927" type="line"/>
      <point x="447" y="1369" type="line"/>
      <point x="1489" y="1369" type="line"/>
      <point x="1489" y="927" type="line"/>
    </contour>
  </outline>
</glyph>
<glyph name="H" format="2">
  <advance width="2024"/>
  <unicode hex="0048"/>
  <outline>
    <contour>
      <point x="153" y="0" type="line" identifier="uqAJBjDIOT"/>
      <point x="507" y="0" type="line" identifier="WUaPOcaxKT"/>
      <point x="507" y="681" type="line" identifier="QjywsYY2yB"/>
      <point x="1516" y="681" type="line" identifier="7JgTtdb0jg"/>
      <point x="1516" y="0" type="line" identifier="njzlIRBsoY"/>
      <point x="1870" y="0" type="line" identifier="oOtn61SmRY"/>
      <point x="1870" y="1600" type="line" identifier="8OglXgblhr"/>
      <point x="1516" y="1600" type="line" identifier="db0bPhBdaU"/>
      <point x="1516" y="919" type="line" identifier="MTAeavIVWY"/>
      <point x="507" y="919" type="line" identifier="lggLiivmLt"/>
      <point x="507" y="1600" type="line" identifier="UPaHY3UudR"/>
      <point x="153" y="1600" type="line" identifier="ZnCDQVdtyD"/>
    </contour>
  </outline>
</glyph>
<glyph name="M" format="2">
  <advance width="2585"/>
  <unicode hex="004D"/>
  <outline>
    <contour>
      <point x="1020" y="129" type="line" identifier="0Dn4Xpf57M"/>
      <point x="602" y="1362" type="line"/>
      <point x="475" y="1362" type="line"/>
      <point x="475" y="0" type="line"/>
      <point x="139" y="0" type="line"/>
      <point x="139" y="1600" type="line"/>
      <point x="837" y="1600" type="line"/>
      <point x="1232" y="377" type="line"/>
      <point x="1353" y="377" type="line" identifier="9aKZPM0HPh"/>
      <point x="1747" y="1600" type="line"/>
      <point x="2446" y="1600" type="line"/>
      <point x="2446" y="0" type="line"/>
      <point x="2110" y="0" type="line"/>
      <point x="2110" y="1362" type="line"/>
      <point x="1983" y="1362" type="line"/>
      <point x="1565" y="129" type="line" identifier="spdoeeCFft"/>
    </contour>
  </outline>
</glyph>
<glyph name="P" format="2">
  <advance width="1899"/>
  <unicode hex="0050"/>
  <outline>
    <contour>
      <point x="154" y="0" type="line" identifier="EG08jqU5fb"/>
      <point x="508" y="0" type="line" identifier="osRzIFK2Cu"/>
      <point x="508" y="563" type="line" identifier="hIFVovVRwe"/>
      <point x="1788" y="563" type="line" identifier="Tt6D8zYZmU"/>
      <point x="1788" y="1600" type="line" identifier="6xW04auDFu"/>
      <point x="154" y="1600" type="line" identifier="eETO5GBD5v"/>
    </contour>
    <contour>
      <point x="508" y="802" type="line" identifier="PIBVN1PGv1"/>
      <point x="508" y="1362" type="line" identifier="IZIZQr2gYJ"/>
      <point x="1434" y="1362" type="line" identifier="2c4LCF1E1R"/>
      <point x="1434" y="802" type="line" identifier="1WCnzth1GX"/>
    </contour>
  </outline>
</glyph>
<glyph name="Q" format="2">
  <advance width="1987"/>
  <unicode hex="0051"/>
  <outline>
    <contour>
      <point x="1854" y="1600" type="line" identifier="c9brEFyXXA"/>
      <point x="287" y="1600" type="line" identifier="a4Ql951bxG"/>
      <point x="91" y="1232" type="line" identifier="kbL68Qh2zr"/>
      <point x="91" y="0" type="line" identifier="U6WibAQAUl"/>
      <point x="1854" y="0" type="line" identifier="dfgNHTgBfR"/>
    </contour>
    <contour>
      <point x="1499" y="239" type="line" identifier="jjd5iRDXWT"/>
      <point x="445" y="239" type="line" identifier="YbQKHpAtYn"/>
      <point x="445" y="1186" type="line" identifier="vdfGLkskOQ"/>
      <point x="547" y="1362" type="line" identifier="qXlVxK5ShE"/>
      <point x="1499" y="1362" type="line" identifier="g70r2r6DwY"/>
    </contour>
    <contour>
      <point x="848" y="-197" type="line"/>
      <point x="1135" y="-197" type="line"/>
      <point x="1135" y="2" type="line"/>
      <point x="848" y="2" type="line"/>
    </contour>
  </outline>
</glyph>
<glyph name="R" format="2">
  <advance width="1863"/>
  <unicode hex="0052"/>
  <outline>
    <contour>
      <point x="1389" y="0" type="line"/>
      <point x="1743" y="0" type="line"/>
      <point x="1743" y="438" type="line"/>
      <point x="1558" y="589" type="line"/>
      <point x="1204" y="582" type="line"/>
      <point x="1389" y="404" type="line"/>
    </contour>
    <contour>
      <point x="135" y="0" type="line" identifier="EG08jqU5fb"/>
      <point x="490" y="0" type="line" identifier="osRzIFK2Cu"/>
      <point x="490" y="574" type="line" identifier="hIFVovVRwe"/>
      <point x="1768" y="574" type="line" identifier="Tt6D8zYZmU"/>
      <point x="1768" y="1600" type="line" identifier="6xW04auDFu"/>
      <point x="135" y="1600" type="line" identifier="eETO5GBD5v"/>
    </contour>
    <contour>
      <point x="490" y="813" type="line" identifier="PIBVN1PGv1"/>
      <point x="490" y="1361" type="line" identifier="IZIZQr2gYJ"/>
      <point x="1414" y="1361" type="line" identifier="2c4LCF1E1R"/>
      <point x="1414" y="813" type="line" identifier="1WCnzth1GX"/>
    </contour>
  </outline>
</glyph>
<glyph name="S" format="2">
  <advance width="1846"/>
  <unicode hex="0053"/>
  <outline>
    <contour>
      <point x="93" y="0" type="line" identifier="09VlJ0BjUX"/>
      <point x="1559" y="0" type="line" identifier="EagWihqFM8"/>
      <point x="1755" y="359" type="line"/>
      <point x="1755" y="917" type="line" identifier="KfNuQA7eZe"/>
      <point x="446" y="917" type="line" identifier="At364YZFEy"/>
      <point x="446" y="1179" type="line"/>
      <point x="556" y="1375" type="line"/>
      <point x="1398" y="1375" type="line" identifier="3ZUkG35meB"/>
      <point x="1398" y="1115" type="line" identifier="DTOJhFIl15"/>
      <point x="1752" y="1115" type="line" identifier="9KDcrfQ5Ui"/>
      <point x="1752" y="1600" type="line" identifier="SaF9ojRFrW"/>
      <point x="291" y="1600" type="line"/>
      <point x="94" y="1226" type="line"/>
      <point x="94" y="684" type="line" identifier="3sQ8t8BZ6b"/>
      <point x="1400" y="684" type="line" identifier="yiV6OCBLHg"/>
      <point x="1400" y="406" type="line"/>
      <point x="1287" y="227" type="line" identifier="9kdl9SYsn8"/>
      <point x="447" y="227" type="line" identifier="yZDWuX8LLe"/>
      <point x="447" y="464" type="line" identifier="jYb9001DTm"/>
      <point x="93" y="464" type="line" identifier="ho4DrS0rdW"/>
    </contour>
  </outline>
</glyph>
<glyph name="Y" format="2">
  <advance width="1959"/>
  <unicode hex="0059"/>
  <outline>
    <contour>
      <point x="125" y="0" type="line"/>
      <point x="1835" y="0" type="line" identifier="oOtn61SmRY"/>
      <point x="1835" y="1600" type="line" identifier="8OglXgblhr"/>
      <point x="1481" y="1600" type="line" identifier="db0bPhBdaU"/>
      <point x="1481" y="935" type="line" identifier="MTAeavIVWY"/>
      <point x="480" y="935" type="line" identifier="lggLiivmLt"/>
      <point x="480" y="1600" type="line" identifier="UPaHY3UudR"/>
      <point x="126" y="1600" type="line" identifier="ZnCDQVdtyD"/>
      <point x="126" y="706" type="line" identifier="uqAJBjDIOT"/>
      <point x="1481" y="706" type="line" identifier="7JgTtdb0jg"/>
      <point x="1481" y="230" type="line"/>
      <point x="479" y="230" type="line"/>
      <point x="479" y="487" type="line"/>
      <point x="125" y="487" type="line"/>
    </contour>
  </outline>
</glyph>
<glyph name="C.wide" format="2">
  <advance width="1790"/>
  <outline>
    <contour>
      <point x="121" y="0" type="line" identifier="7lPhzTnk2Z"/>
      <point x="1719" y="0" type="line" identifier="qJVLZGnkwh"/>
      <point x="1719" y="238" type="line" identifier="Y750RHTvDj"/>
      <point x="475" y="238" type="line" identifier="L2LsGnXiZ2"/>
      <point x="475" y="1091" type="line" identifier="sUWsr03vF4"/>
      <point x="586" y="1362" type="line" identifier="dbOUe6OhxL"/>
      <point x="1718" y="1362" type="line" identifier="5BjRbcud80"/>
      <point x="1718" y="1600" type="line" identifier="9eJelv8BOw"/>
      <point x="319" y="1600" type="line" identifier="lfZev3ICaC"/>
      <point x="121" y="1142" type="line" identifier="V1EWIdPahq"/>
    </contour>
  </outline>
</glyph>
<glyph name="E.wide" format="2">
  <advance width="1645"/>
  <outline>
    <contour>
      <point x="122" y="0" type="line" identifier="fZynkQ4XHB"/>
      <point x="1578" y="0" type="line" identifier="FAQNpgUPxV"/>
      <point x="1578" y="226" type="line" identifier="5cgTYOhATF"/>
      <point x="477" y="226" type="line" identifier="bWs42DaCgU"/>
      <point x="477" y="692" type="line" identifier="VtD2aADJmn"/>
      <point x="1430" y="692" type="line" identifier="PpbsFdHAnS"/>
      <point x="1430" y="908" type="line" identifier="8WuC5p8Ax5"/>
      <point x="477" y="908" type="line" identifier="m39IWn9ntA"/>
      <point x="477" y="1376" type="line" identifier="gQ21I4SHQg"/>
      <point x="1572" y="1376" type="line" identifier="eqNb2VTwYs"/>
      <point x="1572" y="1600" type="line" identifier="qYRmo14Il5"/>
      <point x="122" y="1600" type="line" identifier="HmJIcnLWfC"/>
    </contour>
  </outline>
</glyph>
<glyph name="F.wide" format="2">
  <advance width="1834"/>
  <outline>
    <contour>
      <point x="133" y="0" type="line" identifier="oAgH2tA6DJ"/>
      <point x="487" y="0" type="line" identifier="zCZyMcW5ho"/>
      <point x="487" y="582" type="line" identifier="yHYqkMd7LI"/>
      <point x="1581" y="582" type="line" identifier="NmB7yyQuio"/>
      <point x="1581" y="820" type="line" identifier="wQk2C8zPHh"/>
      <point x="487" y="820" type="line" identifier="4cFHKQfHDt"/>
      <point x="487" y="1362" type="line" identifier="ZvzwyrcwpS"/>
      <point x="1702" y="1362" type="line" identifier="4E754ovOIe"/>
      <point x="1702" y="1600" type="line" identifier="NUrIjqOB7J"/>
      <point x="133" y="1600" type="line" identifier="TBAYuCfUFX"/>
    </contour>
  </outline>
</glyph>
<glyph name="G.wide" format="2">
  <advance width="1881"/>
  <outline>
    <contour>
      <point x="74" y="0" type="line" identifier="7lPhzTnk2Z"/>
      <point x="1797" y="0" type="line" identifier="qJVLZGnkwh"/>
      <point x="1797" y="881" type="line" identifier="uek1NNj7De"/>
      <point x="1079" y="881" type="line" identifier="qcvimxjndX"/>
      <point x="1079" y="680" type="line" identifier="EARaY3Su65"/>
      <point x="1444" y="680" type="line" identifier="4m6dHLVhZq"/>
      <point x="1444" y="231" type="line" identifier="Y750RHTvDj"/>
      <point x="428" y="231" type="line" identifier="L2LsGnXiZ2"/>
      <point x="428" y="1111" type="line" identifier="sUWsr03vF4"/>
      <point x="535" y="1369" type="line" identifier="dbOUe6OhxL"/>
      <point x="1794" y="1369" type="line" identifier="5BjRbcud80"/>
      <point x="1794" y="1600" type="line" identifier="9eJelv8BOw"/>
      <point x="262" y="1600" type="line" identifier="lfZev3ICaC"/>
      <point x="74" y="1156" type="line" identifier="V1EWIdPahq"/>
    </contour>
  </outline>
</glyph>
<glyph name="I.narrow" format="2">
  <advance width="637"/>
  <outline>
    <contour>
      <point x="495" y="1" type="line" identifier="1m237t4hyw"/>
      <point x="495" y="1600" type="line" identifier="v7N4yg5XNk"/>
      <point x="141" y="1600" type="line" identifier="zfocDyDTCM"/>
      <point x="141" y="1" type="line" identifier="S4rO5KuHiL"/>
    </contour>
  </outline>
</glyph>
<glyph name="L.wide" format="2">
  <advance width="1683"/>
  <outline>
    <contour>
      <point x="142" y="0" type="line" identifier="XkJNfQlnnt"/>
      <point x="1613" y="0" type="line" identifier="82EXZEgt46"/>
      <point x="1613" y="238" type="line" identifier="cqpSxwFiM3"/>
      <point x="496" y="238" type="line" identifier="MbxRZRd8vz"/>
      <point x="496" y="1600" type="line" identifier="lYiaKSKITt"/>
      <point x="142" y="1600" type="line" identifier="XFf4mMUzYo"/>
    </contour>
  </outline>
</glyph>
<glyph name="M.narrow" format="2">
  <advance width="2607"/>
  <outline>
    <contour>
      <point x="2115" y="0" type="line" smooth="yes" identifier="12Pyby1xY2"/>
      <point x="2469" y="0" type="line" smooth="yes" identifier="5LJg4ajoG6"/>
      <point x="2469" y="1600" type="line" smooth="yes" identifier="ZqTZqAY3uY"/>
      <point x="294" y="1600" type="line" smooth="yes" identifier="R4lklfJsHA"/>
      <point x="94" y="1237" type="line" smooth="yes" identifier="7g7f8Wu7K4"/>
      <point x="94" y="0" type="line" smooth="yes" identifier="RTOJW56qXy"/>
      <point x="449" y="0" type="line" identifier="JfSFAkWGZC"/>
      <point x="449" y="1144" type="line" smooth="yes" identifier="WWvGwSpq0g"/>
      <point x="577" y="1362" type="line" smooth="yes" identifier="oee4nqI8Wl"/>
      <point x="1105" y="1362" type="line" identifier="Ljn2lpvpG8"/>
      <point x="1105" y="19" type="line" smooth="yes"/>
      <point x="1459" y="19" type="line"/>
      <point x="1459" y="1362" type="line" identifier="GlWB6PG54Z"/>
      <point x="2115" y="1362" type="line" identifier="iqeTRv7HXg"/>
    </contour>
  </outline>
</glyph>
<glyph name="N.wide" format="2">
  <advance width="1968"/>
  <outline>
    <contour>
      <point x="151" y="0" type="line" identifier="CkwYPPvJLv"/>
      <point x="505" y="0" type="line" identifier="oHTJsN7drZ"/>
      <point x="505" y="1315" type="line" identifier="wfBbYd10Pm"/>
      <point x="588" y="1315" type="line" identifier="MEnBDHq6zU"/>
      <point x="1511" y="0" type="line" identifier="3Nbopwznvn"/>
      <point x="2001" y="0" type="line" identifier="uKfuudIUvA"/>
      <point x="2001" y="1600" type="line" identifier="XRdLFXiM4t"/>
      <point x="1646" y="1600" type="line" identifier="MUSJPjCIXg"/>
      <point x="1646" y="296" type="line" identifier="VILP20cFmq"/>
      <point x="1565" y="296" type="line" identifier="z5b04GDwRN"/>
      <point x="649" y="1600" type="line" identifier="LL64NQ6WBE"/>
      <point x="151" y="1600" type="line" identifier="dzUaaP1sjt"/>
    </contour>
  </outline>
</glyph>
<glyph name="R.wide" format="2">
  <advance width="1907"/>
  <outline>
    <contour>
      <point x="1393" y="0" type="line"/>
      <point x="1747" y="0" type="line"/>
      <point x="1532" y="597" type="line"/>
      <point x="1202" y="597" type="line"/>
    </contour>
    <contour>
      <point x="135" y="0" type="line" identifier="EG08jqU5fb"/>
      <point x="490" y="0" type="line" identifier="osRzIFK2Cu"/>
      <point x="490" y="584" type="line" identifier="hIFVovVRwe"/>
      <point x="1769" y="584" type="line" identifier="Tt6D8zYZmU"/>
      <point x="1769" y="1600" type="line" identifier="6xW04auDFu"/>
      <point x="135" y="1600" type="line" identifier="eETO5GBD5v"/>
    </contour>
    <contour>
      <point x="490" y="822" type="line" identifier="PIBVN1PGv1"/>
      <point x="490" y="1361" type="line" identifier="IZIZQr2gYJ"/>
      <point x="1414" y="1361" type="line" identifier="2c4LCF1E1R"/>
      <point x="1414" y="822" type="line" identifier="1WCnzth1GX"/>
    </contour>
  </outline>
</glyph>
<glyph name="S.wide" format="2">
  <advance width="1821"/>
  <outline>
    <contour>
      <point x="72" y="0" type="line" identifier="09VlJ0BjUX"/>
      <point x="1555" y="0" type="line" identifier="EagWihqFM8"/>
      <point x="1750" y="361" type="line"/>
      <point x="1751" y="919" type="line" identifier="KfNuQA7eZe"/>
      <point x="424" y="919" type="line" identifier="At364YZFEy"/>
      <point x="424" y="1179" type="line"/>
      <point x="537" y="1375" type="line"/>
      <point x="1751" y="1375" type="line" identifier="3ZUkG35meB"/>
      <point x="1751" y="1600" type="line" identifier="SaF9ojRFrW"/>
      <point x="270" y="1600" type="line"/>
      <point x="72" y="1226" type="line"/>
      <point x="72" y="687" type="line" identifier="3sQ8t8BZ6b"/>
      <point x="1396" y="687" type="line" identifier="yiV6OCBLHg"/>
      <point x="1396" y="406" type="line"/>
      <point x="1283" y="227" type="line" identifier="9kdl9SYsn8"/>
      <point x="72" y="227" type="line" identifier="yZDWuX8LLe"/>
    </contour>
  </outline>
</glyph>
<glyph name="U.alt" format="2">
  <advance width="1881"/>
  <outline>
    <contour>
      <point x="1415" y="1600" type="line" smooth="yes"/>
      <point x="1415" y="238" type="line"/>
      <point x="453" y="238" type="line" smooth="yes"/>
      <point x="453" y="1600" type="line"/>
      <point x="99" y="1600" type="line" smooth="yes"/>
      <point x="99" y="0" type="line" smooth="yes"/>
      <point x="1769" y="0" type="line" smooth="yes"/>
      <point x="1769" y="1600" type="line" smooth="yes"/>
    </contour>
  </outline>
</glyph>
<glyph name="Y.wide" format="2">
  <advance width="1993"/>
  <outline>
    <contour>
      <point x="145" y="0" type="line"/>
      <point x="1858" y="0" type="line" identifier="oOtn61SmRY"/>
      <point x="1858" y="1600" type="line" identifier="8OglXgblhr"/>
      <point x="1504" y="1600" type="line" identifier="db0bPhBdaU"/>
      <point x="1504" y="934" type="line" identifier="MTAeavIVWY"/>
      <point x="490" y="934" type="line" identifier="lggLiivmLt"/>
      <point x="490" y="1600" type="line" identifier="UPaHY3UudR"/>
      <point x="136" y="1600" type="line" identifier="ZnCDQVdtyD"/>
      <point x="136" y="702" type="line" identifier="uqAJBjDIOT"/>
      <point x="1504" y="702" type="line" identifier="7JgTtdb0jg"/>
      <point x="1504" y="231" type="line"/>
      <point x="145" y="231" type="line"/>
    </contour>
  </outline>
</glyph>
<glyph name="Z.wide" format="2">
  <advance width="1838"/>
  <outline>
    <contour>
      <point x="70" y="0" type="line"/>
      <point x="1763" y="0" type="line" identifier="pzdvPTirLJ"/>
      <point x="1763" y="229" type="line"/>
      <point x="447" y="229" type="line"/>
      <point x="447" y="400" type="line"/>
      <point x="1763" y="1231" type="line" identifier="yyb1NCCI5w"/>
      <point x="1763" y="1600" type="line" identifier="5FogYRSgkk"/>
      <point x="79" y="1600" type="line" identifier="svlFvrau4c"/>
      <point x="79" y="1370" type="line"/>
      <point x="1361" y="1370" type="line"/>
      <point x="1361" y="1317" type="line"/>
      <point x="70" y="495" type="line" identifier="teVKnpBcVb"/>
    </contour>
  </outline>
</glyph>
<glyph name="five.wide" format="2">
  <advance width="1909"/>
  <outline>
    <contour>
      <point x="94" y="0" type="line" identifier="09VlJ0BjUX"/>
      <point x="1817" y="0" type="line" identifier="EagWihqFM8"/>
      <point x="1817" y="913" type="line" identifier="KfNuQA7eZe"/>
      <point x="447" y="913" type="line" identifier="At364YZFEy"/>
      <point x="447" y="1369" type="line" identifier="BcuLfvaQKC"/>
      <point x="1817" y="1369" type="line" identifier="3ZUkG35meB"/>
      <point x="1817" y="1600" type="line" identifier="SaF9ojRFrW"/>
      <point x="92" y="1600" type="line" identifier="F4sQEYelA8"/>
      <point x="92" y="686" type="line" identifier="3sQ8t8BZ6b"/>
      <point x="1463" y="686" type="line" identifier="yiV6OCBLHg"/>
      <point x="1463" y="231" type="line" identifier="9kdl9SYsn8"/>
      <point x="94" y="231" type="line" identifier="yZDWuX8LLe"/>
    </contour>
  </outline>
</glyph>
<glyph name="nine.wide" format="2">
  <advance width="1894"/>
  <outline>
    <contour>
      <point x="134" y="0" type="line" identifier="oGvEEuxnYv"/>
      <point x="1874" y="0" type="line" identifier="xR3pEHbMJx"/>
      <point x="1874" y="1600" type="line" identifier="uiw6aBUf4P"/>
      <point x="133" y="1600" type="line" identifier="jtYkxiUX6G"/>
      <point x="133" y="687" type="line" identifier="2G5L37c87I"/>
      <point x="1519" y="687" type="line"/>
      <point x="1519" y="231" type="line"/>
      <point x="134" y="231" type="line"/>
    </contour>
    <contour>
      <point x="487" y="913" type="line"/>
      <point x="487" y="1369" type="line"/>
      <point x="1519" y="1369" type="line"/>
      <point x="1519" y="913" type="line"/>
    </contour>
  </outline>
</glyph>
<glyph name="one.narrow" format="2">
  <advance width="1177"/>
  <outline>
    <contour>
      <point x="1051" y="0" type="line" identifier="5nmxQXofSG"/>
      <point x="1051" y="1600" type="line" identifier="4rjIeWbSbx"/>
      <point x="71" y="1600" type="line"/>
      <point x="71" y="1362" type="line"/>
      <point x="696" y="1362" type="line"/>
      <point x="696" y="0" type="line"/>
    </contour>
  </outline>
</glyph>
<glyph name="seven.alt" format="2">
  <advance width="1746"/>
  <outline>
    <contour>
      <point x="109" y="1600" type="line" identifier="jiO9eX9U07"/>
      <point x="1662" y="1600" type="line" identifier="wgpFs1yguc"/>
      <point x="1662" y="0" type="line" identifier="d5Di3vNzni"/>
      <point x="1307" y="0" type="line" identifier="46RrD1WET2"/>
      <point x="1307" y="1362" type="line" identifier="zFXsE8BUYG"/>
      <point x="448" y="1362" type="line" identifier="NQmE31PUns"/>
      <point x="448" y="862" type="line" identifier="qiXxY6YhCq"/>
      <point x="109" y="862" type="line" identifier="7exNZv1XSc"/>
    </contour>
  </outline>
</glyph>
<glyph name="six.wide" format="2">
  <advance width="1892"/>
  <outline>
    <contour>
      <point x="118" y="0" type="line" identifier="uiw6aBUf4P"/>
      <point x="1864" y="0" type="line" identifier="jtYkxiUX6G"/>
      <point x="1864" y="885" type="line" identifier="2G5L37c87I"/>
      <point x="472" y="885" type="line"/>
      <point x="472" y="1229" type="line"/>
      <point x="578" y="1369" type="line"/>
      <point x="1863" y="1369" type="line"/>
      <point x="1863" y="1600" type="line" identifier="oGvEEuxnYv"/>
      <point x="294" y="1600" type="line" identifier="xR3pEHbMJx"/>
      <point x="118" y="1276" type="line" identifier="KnMArb0tv8"/>
    </contour>
    <contour>
      <point x="1509" y="682" type="line"/>
      <point x="1509" y="231" type="line"/>
      <point x="472" y="231" type="line"/>
      <point x="472" y="682" type="line"/>
    </contour>
  </outline>
</glyph>
<glyph name="three.wide" format="2">
  <advance width="2046"/>
  <outline>
    <contour>
      <point x="122" y="0" type="line" identifier="O9abUc1nmN"/>
      <point x="1892" y="0" type="line" identifier="kMJYMTfXCq"/>
      <point x="1892" y="907" type="line" identifier="su2XmdS8e8"/>
      <point x="1741" y="907" type="line" identifier="JQaOzDQqlF"/>
      <point x="1741" y="1600" type="line" identifier="xg8x2Ki40p"/>
      <point x="133" y="1600" type="line" identifier="pE1XSRiy68"/>
      <point x="133" y="1369" type="line" identifier="7ogBYufWpl"/>
      <point x="1387" y="1369" type="line" identifier="RHLvSX2Jv6"/>
      <point x="1387" y="909" type="line" identifier="iic1IBkDqp"/>
      <point x="305" y="909" type="line" identifier="lRLJEhXMlO"/>
      <point x="305" y="683" type="line" identifier="8aKgEELrVU"/>
      <point x="1537" y="683" type="line" identifier="Dm8zjmbhNr"/>
      <point x="1537" y="231" type="line" identifier="xv9CFHiFgB"/>
      <point x="122" y="231" type="line" identifier="YajKQV3MHP"/>
    </contour>
  </outline>
</glyph>
<glyph name="two.wide" format="2">
  <advance width="1850"/>
  <outline>
    <contour>
      <point x="129" y="0" type="line"/>
      <point x="1800" y="0" type="line" identifier="pzdvPTirLJ"/>
      <point x="1800" y="231" type="line"/>
      <point x="483" y="231" type="line"/>
      <point x="483" y="683" type="line"/>
      <point x="1804" y="683" type="line" identifier="yyb1NCCI5w"/>
      <point x="1804" y="1600" type="line" identifier="5FogYRSgkk"/>
      <point x="133" y="1600" type="line" identifier="svlFvrau4c"/>
      <point x="133" y="1369" type="line"/>
      <point x="1449" y="1369" type="line"/>
      <point x="1449" y="908" type="line"/>
      <point x="129" y="908" type="line" identifier="teVKnpBcVb"/>
    </contour>
  </outline>
</glyph>
